<?xml version="1.0" standalone="no"?>
<!DOCTYPE svg PUBLIC "-//W3C//DTD SVG 20010904//EN"
 "http://www.w3.org/TR/2001/REC-SVG-20010904/DTD/svg10.dtd">
<svg version="1.0" xmlns="http://www.w3.org/2000/svg"
 width="231.000000pt" height="236.000000pt" viewBox="0 0 231.000000 236.000000"
 preserveAspectRatio="xMidYMid meet">

<g transform="translate(0.000000,236.000000) scale(0.100000,-0.100000)"
fill="#000000" stroke="none">
<path d="M705 2120 c-173 -26 -324 -114 -424 -247 -94 -126 -141 -277 -141
-457 0 -172 46 -283 170 -406 118 -118 308 -205 431 -198 l53 3 163 180 163
180 -193 5 c-173 5 -197 7 -242 28 -104 48 -165 133 -173 243 -4 56 -1 75 20
120 35 77 70 113 140 148 l61 31 366 1 c201 1 448 4 549 8 l183 6 158 175 158
175 -156 6 c-222 9 -1226 8 -1286 -1z"/>
<path d="M1307 1376 c-92 -102 -167 -187 -167 -190 0 -3 87 -6 193 -6 149 0
204 -4 239 -16 128 -43 214 -201 179 -331 -16 -58 -69 -133 -117 -165 -83 -56
-110 -58 -679 -58 l-520 -1 -77 -87 c-43 -48 -116 -130 -163 -182 l-86 -95
733 -3 c721 -2 734 -2 803 19 135 41 251 118 334 223 305 383 126 924 -351
1056 -144 40 -131 47 -321 -164z"/>
</g>
</svg>
